<?xml version="1.0" standalone="no"?>
<!DOCTYPE svg PUBLIC "-//W3C//DTD SVG 20010904//EN"
 "http://www.w3.org/TR/2001/REC-SVG-20010904/DTD/svg10.dtd">
<svg version="1.0" xmlns="http://www.w3.org/2000/svg"
 width="128.000000pt" height="128.000000pt" viewBox="0 0 128.000000 128.000000"
 preserveAspectRatio="xMidYMid meet">

<g transform="translate(0.000000,128.000000) scale(0.100000,-0.100000)"
fill="#ffffff" stroke="none">
<path d="M516 1144 c-255 -62 -428 -320 -388 -581 44 -282 309 -478 589 -435
227 36 402 213 435 441 22 151 -26 309 -130 422 l-52 56 47 7 c25 3 59 6 74 6
22 0 29 5 29 20 0 13 -7 20 -20 20 -23 0 -214 -21 -217 -23 -1 -2 14 -95 32
-194 4 -24 11 -33 26 -33 15 0 18 5 14 23 -12 58 -25 141 -21 145 2 2 23 -15
46 -38 177 -177 189 -461 27 -650 -254 -296 -733 -183 -832 195 -69 268 117
545 396 589 55 8 69 14 69 28 0 22 -38 23 -124 2z"/>
</g>
</svg>
